# MagicaVoxel @ ephtracy

# material
mtllib Frog.mtl
usemtl palette

# normals
vn -1 0 0
vn 1 0 0
vn 0 0 1
vn 0 0 -1
vn 0 -1 0
vn 0 1 0

# texcoords
vt 0.306641 0.5
vt 0.880859 0.5
vt 0.896484 0.5
vt 0.958984 0.5
vt 0.994141 0.5

# verts
v -5 0 5
v -5 0 -4
v -5 1 5
v -5 1 4
v -5 1 -4
v -5 1 -5
v -5 2 4
v -5 2 -0
v -5 3 -0
v -5 3 -1
v -5 4 -4
v -5 4 -5
v -5 5 -1
v -5 5 -4
v -4 0 -4
v -4 0 -5
v -4 1 -4
v -4 1 -5
v -4 4 -4
v -4 4 -5
v -4 5 -2
v -4 5 -4
v -4 6 -2
v -4 6 -5
v -3 3 -0
v -3 3 -1
v -3 4 5
v -3 4 -0
v -3 5 5
v -3 5 -0
v -3 5 -1
v -3 5 -2
v -3 6 -2
v -3 6 -4
v -3 7 5
v -3 7 -4
v -2 0 4
v -2 0 1
v -2 1 4
v -2 1 2
v -2 3 1
v -2 3 -0
v -2 4 2
v -2 4 -0
v -2 7 3
v -2 7 2
v -2 7 1
v -2 7 -3
v -2 8 -2
v -2 8 -3
v -2 9 3
v -2 9 2
v -2 9 -1
v -2 9 -2
v -2 10 3
v -2 10 1
v -2 10 -1
v -1 1 1
v -1 1 -0
v -1 3 1
v -1 3 -0
v 1 0 4
v 1 0 1
v 1 1 4
v 1 1 2
v 1 1 1
v 1 4 2
v 1 4 1
v 3 0 5
v 3 0 -0
v 3 1 5
v 3 1 4
v 3 2 4
v 3 2 -0
v -3 0 5
v -3 0 -0
v -3 1 5
v -3 1 4
v -3 2 4
v -3 2 -0
v -1 0 4
v -1 0 1
v -1 1 4
v -1 1 2
v -1 1 1
v -1 4 2
v -1 4 1
v 1 1 1
v 1 1 -0
v 1 3 1
v 1 3 -0
v 2 0 4
v 2 0 1
v 2 1 4
v 2 1 2
v 2 3 1
v 2 3 -0
v 2 4 2
v 2 4 -0
v 2 7 3
v 2 7 2
v 2 7 1
v 2 7 -3
v 2 8 -2
v 2 8 -3
v 2 9 3
v 2 9 2
v 2 9 -1
v 2 9 -2
v 2 10 3
v 2 10 1
v 2 10 -1
v 3 3 -0
v 3 3 -1
v 3 4 5
v 3 4 -0
v 3 5 5
v 3 5 -0
v 3 5 -1
v 3 5 -2
v 3 6 -2
v 3 6 -4
v 3 7 5
v 3 7 -4
v 4 0 -4
v 4 0 -5
v 4 1 -4
v 4 1 -5
v 4 4 -4
v 4 4 -5
v 4 5 -2
v 4 5 -4
v 4 6 -2
v 4 6 -5
v 5 0 5
v 5 0 -4
v 5 1 5
v 5 1 4
v 5 1 -4
v 5 1 -5
v 5 2 4
v 5 2 -0
v 5 3 -0
v 5 3 -1
v 5 4 -4
v 5 4 -5
v 5 5 -1
v 5 5 -4
v -5 0 5
v -5 1 5
v -3 0 5
v -3 1 5
v -3 4 5
v -3 5 5
v -3 7 5
v 3 0 5
v 3 1 5
v 3 4 5
v 3 5 5
v 3 7 5
v 5 0 5
v 5 1 5
v -5 1 4
v -5 2 4
v -3 1 4
v -3 2 4
v -2 0 4
v -2 1 4
v -1 0 4
v -1 1 4
v 1 0 4
v 1 1 4
v 2 0 4
v 2 1 4
v 3 1 4
v 3 2 4
v 5 1 4
v 5 2 4
v -2 7 3
v -2 9 3
v -2 10 3
v -1 7 3
v -1 9 3
v 1 7 3
v 1 9 3
v 2 7 3
v 2 9 3
v 2 10 3
v -2 1 2
v -2 4 2
v -1 1 2
v -1 4 2
v 1 1 2
v 1 4 2
v 2 1 2
v 2 4 2
v -1 1 1
v -1 4 1
v 1 1 1
v 1 4 1
v -5 2 -0
v -5 3 -0
v -3 0 -0
v -3 2 -0
v -3 3 -0
v -3 4 -0
v -2 3 -0
v -2 4 -0
v -1 1 -0
v -1 3 -0
v 1 1 -0
v 1 3 -0
v 2 3 -0
v 2 4 -0
v 3 0 -0
v 3 2 -0
v 3 3 -0
v 3 4 -0
v 5 2 -0
v 5 3 -0
v -5 3 -1
v -5 5 -1
v -3 3 -1
v -3 5 -1
v 3 3 -1
v 3 5 -1
v 5 3 -1
v 5 5 -1
v -4 5 -2
v -4 6 -2
v -3 5 -2
v -3 6 -2
v 3 5 -2
v 3 6 -2
v 4 5 -2
v 4 6 -2
v -2 0 1
v -2 3 1
v -1 0 1
v -1 1 1
v -1 3 1
v 1 0 1
v 1 1 1
v 1 3 1
v 2 0 1
v 2 3 1
v -2 9 -1
v -2 10 -1
v 2 9 -1
v 2 10 -1
v -2 8 -2
v -2 9 -2
v 2 8 -2
v 2 9 -2
v -2 7 -3
v -2 8 -3
v 2 7 -3
v 2 8 -3
v -5 0 -4
v -5 1 -4
v -5 4 -4
v -5 5 -4
v -4 0 -4
v -4 1 -4
v -4 4 -4
v -4 5 -4
v -3 6 -4
v -3 7 -4
v 3 6 -4
v 3 7 -4
v 4 0 -4
v 4 1 -4
v 4 4 -4
v 4 5 -4
v 5 0 -4
v 5 1 -4
v 5 4 -4
v 5 5 -4
v -5 1 -5
v -5 4 -5
v -4 0 -5
v -4 1 -5
v -4 4 -5
v -4 6 -5
v 4 0 -5
v 4 1 -5
v 4 4 -5
v 4 6 -5
v 5 1 -5
v 5 4 -5
v -5 0 5
v -3 0 5
v 3 0 5
v 5 0 5
v -2 0 4
v -1 0 4
v 1 0 4
v 2 0 4
v -2 0 1
v -1 0 1
v 1 0 1
v 2 0 1
v -3 0 -0
v 3 0 -0
v -5 0 -4
v -4 0 -4
v 4 0 -4
v 5 0 -4
v -4 0 -5
v 4 0 -5
v -1 1 1
v 1 1 1
v -1 1 -0
v 1 1 -0
v -5 1 -4
v -4 1 -4
v 4 1 -4
v 5 1 -4
v -5 1 -5
v -4 1 -5
v 4 1 -5
v 5 1 -5
v -2 3 1
v -1 3 1
v 1 3 1
v 2 3 1
v -2 3 -0
v -1 3 -0
v 1 3 -0
v 2 3 -0
v -3 4 5
v 3 4 5
v -2 4 2
v -1 4 2
v 1 4 2
v 2 4 2
v -1 4 1
v 1 4 1
v -3 4 -0
v -2 4 -0
v 2 4 -0
v 3 4 -0
v -5 1 5
v -3 1 5
v 3 1 5
v 5 1 5
v -5 1 4
v -3 1 4
v -2 1 4
v -1 1 4
v 1 1 4
v 2 1 4
v 3 1 4
v 5 1 4
v -2 1 2
v -1 1 2
v 1 1 2
v 2 1 2
v -5 2 4
v -3 2 4
v 3 2 4
v 5 2 4
v -5 2 -0
v -3 2 -0
v 3 2 -0
v 5 2 -0
v -5 3 -0
v -3 3 -0
v 3 3 -0
v 5 3 -0
v -5 3 -1
v -3 3 -1
v 3 3 -1
v 5 3 -1
v -5 4 -4
v -4 4 -4
v 4 4 -4
v 5 4 -4
v -5 4 -5
v -4 4 -5
v 4 4 -5
v 5 4 -5
v -5 5 -1
v -3 5 -1
v 3 5 -1
v 5 5 -1
v -4 5 -2
v -3 5 -2
v 3 5 -2
v 4 5 -2
v -5 5 -4
v -4 5 -4
v 4 5 -4
v 5 5 -4
v -4 6 -2
v -3 6 -2
v 3 6 -2
v 4 6 -2
v -3 6 -4
v 3 6 -4
v -4 6 -5
v 4 6 -5
v -3 7 5
v 3 7 5
v -2 7 3
v -1 7 3
v 1 7 3
v 2 7 3
v -2 7 2
v 2 7 2
v -2 7 1
v 2 7 1
v -2 7 -3
v 2 7 -3
v -3 7 -4
v 3 7 -4
v -2 8 -2
v 2 8 -2
v -2 8 -3
v 2 8 -3
v -2 9 -1
v 2 9 -1
v -2 9 -2
v 2 9 -2
v -2 10 3
v 2 10 3
v -2 10 1
v 2 10 1
v -2 10 -1
v 2 10 -1

# faces
f 3/3/1 2/3/1 1/3/1
f 4/3/1 2/3/1 3/3/1
f 5/3/1 2/3/1 4/3/1
f 7/3/1 6/3/1 5/3/1
f 7/3/1 5/3/1 4/3/1
f 8/3/1 6/3/1 7/3/1
f 9/3/1 6/3/1 8/3/1
f 10/3/1 6/3/1 9/3/1
f 11/3/1 6/3/1 10/3/1
f 12/3/1 6/3/1 11/3/1
f 13/3/1 11/3/1 10/3/1
f 14/3/1 11/3/1 13/3/1
f 17/3/1 16/3/1 15/3/1
f 18/3/1 16/3/1 17/3/1
f 22/3/1 20/3/1 19/3/1
f 23/3/1 22/3/1 21/3/1
f 24/3/1 20/3/1 22/3/1
f 24/3/1 22/3/1 23/3/1
f 28/3/1 26/3/1 25/3/1
f 29/2/1 28/2/1 27/2/1
f 30/3/1 26/3/1 28/3/1
f 30/2/1 28/2/1 29/2/1
f 31/3/1 26/3/1 30/3/1
f 33/3/1 30/3/1 29/3/1
f 33/3/1 32/3/1 31/3/1
f 33/3/1 31/3/1 30/3/1
f 35/3/1 33/3/1 29/3/1
f 35/3/1 34/3/1 33/3/1
f 36/3/1 34/3/1 35/3/1
f 39/3/1 38/3/1 37/3/1
f 40/3/1 38/3/1 39/3/1
f 41/3/1 38/3/1 40/3/1
f 43/3/1 41/3/1 40/3/1
f 43/3/1 42/3/1 41/3/1
f 44/3/1 42/3/1 43/3/1
f 49/3/1 48/3/1 47/3/1
f 50/3/1 48/3/1 49/3/1
f 51/5/1 46/5/1 45/5/1
f 52/4/1 47/4/1 46/4/1
f 52/5/1 46/5/1 51/5/1
f 53/3/1 49/3/1 47/3/1
f 54/3/1 49/3/1 53/3/1
f 55/4/1 52/4/1 51/4/1
f 56/4/1 47/4/1 52/4/1
f 56/4/1 52/4/1 55/4/1
f 56/3/1 53/3/1 47/3/1
f 57/3/1 53/3/1 56/3/1
f 60/3/1 59/3/1 58/3/1
f 61/3/1 59/3/1 60/3/1
f 64/3/1 63/3/1 62/3/1
f 65/3/1 63/3/1 64/3/1
f 66/3/1 63/3/1 65/3/1
f 67/3/1 66/3/1 65/3/1
f 68/3/1 66/3/1 67/3/1
f 71/3/1 70/3/1 69/3/1
f 72/3/1 70/3/1 71/3/1
f 73/3/1 70/3/1 72/3/1
f 74/3/1 70/3/1 73/3/1
f 75/3/2 76/3/2 77/3/2
f 77/3/2 76/3/2 78/3/2
f 78/3/2 76/3/2 79/3/2
f 79/3/2 76/3/2 80/3/2
f 81/3/2 82/3/2 83/3/2
f 83/3/2 82/3/2 84/3/2
f 84/3/2 82/3/2 85/3/2
f 84/3/2 85/3/2 86/3/2
f 86/3/2 85/3/2 87/3/2
f 88/3/2 89/3/2 90/3/2
f 90/3/2 89/3/2 91/3/2
f 92/3/2 93/3/2 94/3/2
f 94/3/2 93/3/2 95/3/2
f 95/3/2 93/3/2 96/3/2
f 95/3/2 96/3/2 98/3/2
f 96/3/2 97/3/2 98/3/2
f 98/3/2 97/3/2 99/3/2
f 102/3/2 103/3/2 104/3/2
f 104/3/2 103/3/2 105/3/2
f 100/5/2 101/5/2 106/5/2
f 101/4/2 102/4/2 107/4/2
f 106/5/2 101/5/2 107/5/2
f 102/3/2 104/3/2 108/3/2
f 108/3/2 104/3/2 109/3/2
f 106/4/2 107/4/2 110/4/2
f 107/4/2 102/4/2 111/4/2
f 110/4/2 107/4/2 111/4/2
f 102/3/2 108/3/2 111/3/2
f 111/3/2 108/3/2 112/3/2
f 113/3/2 114/3/2 116/3/2
f 115/2/2 116/2/2 117/2/2
f 116/3/2 114/3/2 118/3/2
f 117/2/2 116/2/2 118/2/2
f 118/3/2 114/3/2 119/3/2
f 117/3/2 118/3/2 121/3/2
f 119/3/2 120/3/2 121/3/2
f 118/3/2 119/3/2 121/3/2
f 117/3/2 121/3/2 123/3/2
f 121/3/2 122/3/2 123/3/2
f 123/3/2 122/3/2 124/3/2
f 125/3/2 126/3/2 127/3/2
f 127/3/2 126/3/2 128/3/2
f 129/3/2 130/3/2 132/3/2
f 131/3/2 132/3/2 133/3/2
f 132/3/2 130/3/2 134/3/2
f 133/3/2 132/3/2 134/3/2
f 135/3/2 136/3/2 137/3/2
f 137/3/2 136/3/2 138/3/2
f 138/3/2 136/3/2 139/3/2
f 139/3/2 140/3/2 141/3/2
f 138/3/2 139/3/2 141/3/2
f 141/3/2 140/3/2 142/3/2
f 142/3/2 140/3/2 143/3/2
f 143/3/2 140/3/2 144/3/2
f 144/3/2 140/3/2 145/3/2
f 145/3/2 140/3/2 146/3/2
f 144/3/2 145/3/2 147/3/2
f 147/3/2 145/3/2 148/3/2
f 151/3/3 150/3/3 149/3/3
f 152/3/3 150/3/3 151/3/3
f 158/2/3 154/2/3 153/2/3
f 159/3/3 155/3/3 154/3/3
f 159/2/3 154/2/3 158/2/3
f 160/3/3 155/3/3 159/3/3
f 161/3/3 157/3/3 156/3/3
f 162/3/3 157/3/3 161/3/3
f 165/3/3 164/3/3 163/3/3
f 166/3/3 164/3/3 165/3/3
f 169/3/3 168/3/3 167/3/3
f 170/3/3 168/3/3 169/3/3
f 173/3/3 172/3/3 171/3/3
f 174/3/3 172/3/3 173/3/3
f 177/3/3 176/3/3 175/3/3
f 178/3/3 176/3/3 177/3/3
f 182/5/3 180/5/3 179/5/3
f 183/4/3 181/4/3 180/4/3
f 183/5/3 180/5/3 182/5/3
f 184/4/3 183/4/3 182/4/3
f 185/4/3 181/4/3 183/4/3
f 185/4/3 183/4/3 184/4/3
f 186/5/3 185/5/3 184/5/3
f 187/4/3 181/4/3 185/4/3
f 187/5/3 185/5/3 186/5/3
f 188/4/3 181/4/3 187/4/3
f 191/3/3 190/3/3 189/3/3
f 192/3/3 190/3/3 191/3/3
f 195/3/3 194/3/3 193/3/3
f 196/3/3 194/3/3 195/3/3
f 199/3/3 198/3/3 197/3/3
f 200/3/3 198/3/3 199/3/3
f 204/3/3 202/3/3 201/3/3
f 205/3/3 202/3/3 204/3/3
f 207/3/3 204/3/3 203/3/3
f 207/3/3 206/3/3 205/3/3
f 207/3/3 205/3/3 204/3/3
f 208/3/3 206/3/3 207/3/3
f 209/3/3 207/3/3 203/3/3
f 210/3/3 207/3/3 209/3/3
f 211/3/3 209/3/3 203/3/3
f 213/3/3 212/3/3 211/3/3
f 215/3/3 213/3/3 211/3/3
f 215/3/3 214/3/3 213/3/3
f 215/3/3 211/3/3 203/3/3
f 216/3/3 214/3/3 215/3/3
f 217/3/3 214/3/3 216/3/3
f 218/3/3 214/3/3 217/3/3
f 219/3/3 217/3/3 216/3/3
f 220/3/3 217/3/3 219/3/3
f 223/3/3 222/3/3 221/3/3
f 224/3/3 222/3/3 223/3/3
f 227/3/3 226/3/3 225/3/3
f 228/3/3 226/3/3 227/3/3
f 231/3/3 230/3/3 229/3/3
f 232/3/3 230/3/3 231/3/3
f 235/3/3 234/3/3 233/3/3
f 236/3/3 234/3/3 235/3/3
f 237/3/4 238/3/4 239/3/4
f 239/3/4 238/3/4 240/3/4
f 240/3/4 238/3/4 241/3/4
f 242/3/4 243/3/4 245/3/4
f 243/3/4 244/3/4 245/3/4
f 245/3/4 244/3/4 246/3/4
f 247/3/4 248/3/4 249/3/4
f 249/3/4 248/3/4 250/3/4
f 251/3/4 252/3/4 253/3/4
f 253/3/4 252/3/4 254/3/4
f 255/3/4 256/3/4 257/3/4
f 257/3/4 256/3/4 258/3/4
f 259/3/4 260/3/4 263/3/4
f 263/3/4 260/3/4 264/3/4
f 261/3/4 262/3/4 265/3/4
f 265/3/4 262/3/4 266/3/4
f 267/3/4 268/3/4 269/3/4
f 269/3/4 268/3/4 270/3/4
f 271/3/4 272/3/4 275/3/4
f 275/3/4 272/3/4 276/3/4
f 273/3/4 274/3/4 277/3/4
f 277/3/4 274/3/4 278/3/4
f 279/3/4 280/3/4 282/3/4
f 282/3/4 280/3/4 283/3/4
f 281/3/4 282/3/4 285/3/4
f 283/3/4 284/3/4 285/3/4
f 282/3/4 283/3/4 285/3/4
f 285/3/4 284/3/4 286/3/4
f 286/3/4 284/3/4 287/3/4
f 287/3/4 284/3/4 288/3/4
f 286/3/4 287/3/4 289/3/4
f 289/3/4 287/3/4 290/3/4
f 299/3/5 296/3/5 295/3/5
f 300/3/5 296/3/5 299/3/5
f 301/3/5 298/3/5 297/3/5
f 302/3/5 298/3/5 301/3/5
f 303/3/5 292/3/5 291/3/5
f 304/3/5 294/3/5 293/3/5
f 305/3/5 303/3/5 291/3/5
f 305/3/5 304/3/5 303/3/5
f 306/3/5 304/3/5 305/3/5
f 307/3/5 294/3/5 304/3/5
f 307/3/5 304/3/5 306/3/5
f 308/3/5 294/3/5 307/3/5
f 309/3/5 307/3/5 306/3/5
f 310/3/5 307/3/5 309/3/5
f 313/3/5 312/3/5 311/3/5
f 314/3/5 312/3/5 313/3/5
f 319/3/5 316/3/5 315/3/5
f 320/3/5 316/3/5 319/3/5
f 321/3/5 318/3/5 317/3/5
f 322/3/5 318/3/5 321/3/5
f 327/3/5 324/3/5 323/3/5
f 328/3/5 324/3/5 327/3/5
f 329/3/5 326/3/5 325/3/5
f 330/3/5 326/3/5 329/3/5
f 333/2/5 332/2/5 331/2/5
f 334/2/5 332/2/5 333/2/5
f 335/2/5 332/2/5 334/2/5
f 336/2/5 332/2/5 335/2/5
f 337/2/5 335/2/5 334/2/5
f 338/2/5 335/2/5 337/2/5
f 339/2/5 333/2/5 331/2/5
f 340/2/5 333/2/5 339/2/5
f 341/2/5 332/2/5 336/2/5
f 342/2/5 332/2/5 341/2/5
f 343/3/6 344/3/6 347/3/6
f 347/3/6 344/3/6 348/3/6
f 345/3/6 346/3/6 353/3/6
f 353/3/6 346/3/6 354/3/6
f 349/3/6 350/3/6 355/3/6
f 355/3/6 350/3/6 356/3/6
f 351/3/6 352/3/6 357/3/6
f 357/3/6 352/3/6 358/3/6
f 359/3/6 360/3/6 363/3/6
f 363/3/6 360/3/6 364/3/6
f 361/3/6 362/3/6 365/3/6
f 365/3/6 362/3/6 366/3/6
f 367/3/6 368/3/6 371/3/6
f 371/3/6 368/3/6 372/3/6
f 369/3/6 370/3/6 373/3/6
f 373/3/6 370/3/6 374/3/6
f 375/3/6 376/3/6 379/3/6
f 379/3/6 376/3/6 380/3/6
f 377/3/6 378/3/6 381/3/6
f 381/3/6 378/3/6 382/3/6
f 383/3/6 384/3/6 387/3/6
f 387/3/6 384/3/6 388/3/6
f 385/3/6 386/3/6 389/3/6
f 389/3/6 386/3/6 390/3/6
f 383/3/6 387/3/6 391/3/6
f 391/3/6 387/3/6 392/3/6
f 390/3/6 386/3/6 393/3/6
f 393/3/6 386/3/6 394/3/6
f 395/3/6 396/3/6 399/3/6
f 397/3/6 398/3/6 400/3/6
f 395/3/6 399/3/6 401/3/6
f 399/3/6 400/3/6 401/3/6
f 400/3/6 398/3/6 402/3/6
f 401/3/6 400/3/6 402/3/6
f 403/3/6 404/3/6 405/3/6
f 405/3/6 404/3/6 406/3/6
f 406/3/6 404/3/6 407/3/6
f 407/3/6 404/3/6 408/3/6
f 403/3/6 405/3/6 409/3/6
f 408/3/6 404/3/6 410/3/6
f 403/3/6 409/3/6 411/3/6
f 410/3/6 404/3/6 412/3/6
f 403/3/6 411/3/6 413/3/6
f 412/3/6 404/3/6 414/3/6
f 403/3/6 413/3/6 415/3/6
f 413/3/6 414/3/6 415/3/6
f 414/3/6 404/3/6 416/3/6
f 415/3/6 414/3/6 416/3/6
f 417/3/6 418/3/6 419/3/6
f 419/3/6 418/3/6 420/3/6
f 421/3/6 422/3/6 423/3/6
f 423/3/6 422/3/6 424/3/6
f 425/4/6 426/4/6 427/4/6
f 427/4/6 426/4/6 428/4/6
f 427/3/6 428/3/6 429/3/6
f 429/3/6 428/3/6 430/3/6
